<svg id="Layer_1" data-name="Layer 1" xmlns="http://www.w3.org/2000/svg" viewBox="0 0 500.88 459.85">
  <defs>
    <style>
      .cls-1 {
        fill: none;
        stroke: #fff;
        stroke-linecap: round;
        stroke-linejoin: round;
        stroke-width: 0.8px;
      }
    </style>
  </defs>
  <title>art</title>
  <path class="cls-1" d="M343.76,306.14c0-3.21-3.54-19.38-15.94-19.38-10.52,0-11.09,16.36-1.15,16.36s7.09-10.53,2.31-10.53c-5.19,0-4.47,5.48-.72,5.48" transform="translate(0 -20.47)"/>
  <path class="cls-1" d="M370,330.49c-4,0-3.9,4.84.69,4.84,7.8,0,7.94-13.42-2.74-13.42-11.73,0-16.39,23.17,3.53,23.17,22.29,0,17.73-40.75-3.78-40.75-11,0-7.75,6.4-.85,6.4s3.47-8.74-6.78-8.74c-32.28,0-37.78,40.85-57.54,40.85-14,0-22-11.36-22-20.57,0-20.32,32.85-37,32.85-51.64,0-12.94-10.2-14.33-16.42-14.33s-12.69,6.62-12.69,14.33c0,17.77,54,52.27,54,67.57,0,3.7-1.94,6.88-6.6,6.88s-3.29-3.75-.15-3.75c7.14,0,9.8,22.55-3.3,22.55-10.91,0-9.52-13.12-1.09-13.12,5.39,0,5.72,8,0,8-3.25,0-3-3.79,0-3.79" transform="translate(0 -20.47)"/>
  <path class="cls-1" d="M311.15,340.29c0,13.41-20,17.66-31.62,17.66-5.2,0-8.22-5.77,2.31-5.77,5.63,0-4.89,17.28-34.44,17.28-38.68,0-37.7-52.54-5.52-52.54,31.86,0,28.37,39.35,4.88,39.35-17,0-16.77-20.6-3.88-20.6,7.42,0,8.71,10.39.95,10.39" transform="translate(0 -20.47)"/>
  <path class="cls-1" d="M283.39,311.53c-10.73,0-22.07-12.67-16.56-12.67,7.79,0,.5,5.8-10.16,5.8-28.32,0-35.42-50.78,1.92-50.78,22.41,0,20,30.58,3.68,30.58-11.16,0-11.22-17.58-1.71-17.58,5.26,0,5.72,7.24.13,7.24" transform="translate(0 -20.47)"/>
  <path class="cls-1" d="M248,302.82c-11.69,0-15.8,9.49-20.69,9.49s-7.62-6.17-3.36-6.17,3.57,16.65-15.61,16.65c-13.58,0-12.83-18.86-1.43-18.86,5.89,0,6.89,8.87,1.25,8.87" transform="translate(0 -20.47)"/>
  <path class="cls-1" d="M185.71,290.37c6.59,0,6.16-9.84-.16-9.84-17.06,0-14.11,21.93.16,21.93,21.91,0,27-37-3.44-37-33.92,0-31.1,68.54,6.44,68.54,6,0,10.11-5.24,5.24-5.24s2.71,10.1,9.21,10.1c3.55,0,15.14,3.93,15.14,7.84" transform="translate(0 -20.47)"/>
  <path class="cls-1" d="M155.14,344.07c0,3.86,7.72,5.6,7.72,0s-16.8-14.29-16.8,4.44,27,10.23,27,1.16-4.05-4.48-4.05-1.27,6.62-5.87,9.73-5.87" transform="translate(0 -20.47)"/>
  <path class="cls-1" d="M185.71,367.35c3.47,0,4.89-8.05-.95-8.05s-12.47,16.58,0,16.58S206.39,362,200.86,362s-4.1,4.42-1.26,4.42c10.63,0,9.29-7.1,23.64-7.1" transform="translate(0 -20.47)"/>
  <path class="cls-1" d="M176.73,391.82c2.84,0,2.84-3.79-.95-3.79s-6.83,9,0,9c11.21,0,13.73-17.84,8.37-17.84s-5.55,3.63-1.83,3.63,10.51-7.33,10.51-8.52" transform="translate(0 -20.47)"/>
  <path class="cls-1" d="M123.52,342.83c0,4.55,9.31,5.41,9.31-3.68s-24.9-7.41-24.9,7,12.34,15.07,17.54,15.07,17.74-9.09,22.73-9.09" transform="translate(0 -20.47)"/>
  <path class="cls-1" d="M87.72,332.5c-4.55,0-5.85,7.75,1.52,7.75,9.86,0,12.42-18-1-18-25.93,0-17.83,31.87.93,31.87,10.92,0,11.33-8,6.78-8s4.42,9.17,14.13,9.17" transform="translate(0 -20.47)"/>
  <path class="cls-1" d="M126.36,293.64c-8.12,0-5.23,10.33,1.7,10.33,14.29,0,13.88-24.64-2.46-24.64-30.09,0-33.34,47.19,0,47.19,21.22,0,29.44-12.94,21.43-12.94s-3.21,9.21,19.67,9.21" transform="translate(0 -20.47)"/>
  <path class="cls-1" d="M221.17,270.5c-5.19,0-5.35,5.2.28,5.2,6.49,0,8.18-12.86-1.49-12.86-14.05,0-9.56,27.34,1.43,27.34,4.76,0,6.59-4.38,2.65-4.38s4.13,17.38,20.19,17.38" transform="translate(0 -20.47)"/>
  <path class="cls-1" d="M55.19,296.79c5.08,0,5.13-6.14-1.11-6.14-8,0-10.88,11.34.85,11.34,12.44,0,14.77-19.4-.32-19.4-22.92,0-22.34,28.5,3,28.5,14.74,0,32.74-12.52,21.28-12.52-10.6,0,5.36,13,24.15,13" transform="translate(0 -20.47)"/>
  <path class="cls-1" d="M214.73,209.47c9.09,0,13.49-7.2,19.06-7.2s1.35,4.44-1.79,4.44-0.62-10.23,13.23-10.23,12.23,13,4,13c-6.08,0-6.08-6-.27-6" transform="translate(0 -20.47)"/>
  <path class="cls-1" d="M175.67,266.36c0-8.44,15.32-36.37,15.32-24.13,0,8.66-5.85,3.81-5.85-5.07,0-14.17,13.13-27.76,27.62-27.76,31.07,0,25.76,38.34,7.2,38.34-25.58,0-16.57-24-3.31-24,9.84,0,11,12.83,3.31,12.83S213.05,230,218,230" transform="translate(0 -20.47)"/>
  <path class="cls-1" d="M178.13,215.52c0,3.25,5.55,2.25,5.55-1,0-6.79-11-6.79-11,1s8,6.2,8,9.44-4,7.11-4,3,8.82-3.19,8.82,5" transform="translate(0 -20.47)"/>
  <path class="cls-1" d="M313.84,197.64c-4.59,0-6.54,9,0,9s12-21,0-21-22.43,34.8-12.54,34.8,5.59-5.3.88-5.3-4.83,16.25-4.83,21-12.66,18.72-12.66,25.79" transform="translate(0 -20.47)"/>
  <path class="cls-1" d="M342.28,249.22c0-4.95-9.36-7.72-9.36,4.35s21.55,12.25,21.55-4.17c0-25.37-37.09-24-37.09-9.36,0,7.72,4.42,4.06,4.42,0,0-13.07-32.32,8.2-32.32,15.05" transform="translate(0 -20.47)"/>
  <path class="cls-1" d="M282.75,192.34c0,2.47,5.3,3.36,5.3,0s-13.6-10.07-13.6,4.95,13.6,8.13,13.6,4.42-5.83-3.89-5.83-.18,12.84,3.53,12.84,11.66" transform="translate(0 -20.47)"/>
  <path class="cls-1" d="M352.94,362.1c3.73,0,4.13-4.87-.3-4.87-6.06,0-5.35,9.85,1.15,9.85,12.95,0,11-16.28,4.1-16.28-2.15,0-2.37,2.46,1.19,2.46,5.06,0,12.4-2,12.4-8.19" transform="translate(0 -20.47)"/>
  <path class="cls-1" d="M372.28,396.43c-4.34,0-3.66,5.6,0,5.6,8.49,0,9.48-13.41-1-13.41-16.11,0-16.41,21.38,1.59,21.38,25.19,0,13.37-37.79.85-37.79-3.53,0-2.57,4.23,1.49,4.23,11,0-2-17-12-17" transform="translate(0 -20.47)"/>
  <path class="cls-1" d="M280.25,395.79c-3,0-2,4.3,1.61,4.3s6.1-11.91-2.51-11.91c-13.08,0-13.27,20.41.9,20.41,24.45,0,12.73-37.6,6.45-37.6s-8.61,5.38-2.15,5.38S294.33,355,297.38,355" transform="translate(0 -20.47)"/>
  <path class="cls-1" d="M259.63,421.85c0,1.21,3.2,1.19,3.2-.8,0-3.09-6.4-4.28-6.4.36,0,10.15,8.88,8.46,8.88-11.11,0-3.15-3.14-3-3.14.72,0,5.83,12-3.09,15.06-3.09" transform="translate(0 -20.47)"/>
  <path class="cls-1" d="M340.63,431.83c-4.09,0-5.26,6.43,1,6.43s2.82-14.72-3.32-14.72c-14.52,0-15,28.47,3.47,28.47,24,0,22.08-32.6,16.38-32.6s-4.82,6.29.15,6.29,10.82-7.6,13.16-7.6" transform="translate(0 -20.47)"/>
  <path class="cls-1" d="M380.69,439c1.46,0,5.56-5.85,0-5.85s-7.6,11.7,0,11.7c15.79,0,13.66-24.71,6.85-24.71-6.41,0-8.16,4.88-2.75,4.88s1.32-11.6,1.32-16.13" transform="translate(0 -20.47)"/>
  <path class="cls-1" d="M295.06,429.36c-6,0-5.12,6,0,6,9.34,0,10.43-14.73-3.12-14.73-11.49,0-14,22.11,1.44,22.11s28.83-12,21.52-12-5.32,4.24-.64,4.24,14.09-.45,14.09,4.37" transform="translate(0 -20.47)"/>
  <path class="cls-1" d="M260.8,451.13c0,4.68,7.25,3.95,7.25,0,0-13.45-14.86-6.14-14.86,0,0,13.74,23.39,17.25,23.39-2.34,0-25.88-33-16.23-33,2.19,0,43.72,47.22,21.35,47.22,15.5,0-7-7-7.16-7-.15,0,12,22.66,17.25,22.66,10.82s-3.36-6.58-3.36-1.9,6,4.82,9.94,4.82,23.39-5.56,27.34-5.56" transform="translate(0 -20.47)"/>
  <path class="cls-1" d="M316.94,454.78c-3.66,0-6,5.56,0,5.56s8.77-10.67,0-10.67-18.57,23.25-.15,23.25,16.67-9.5,9.5-9.5-7.6,4.53-3.22,4.53,8.19-3.36,10.23-3.36,2.49,6.43,5.41,6.43" transform="translate(0 -20.47)"/>
  <path class="cls-1" d="M345.6,465.37c0,4.93,6,3.85,6-1.08,0-6.29-12.21-6.87-12.21,2.9,0,17.43,25.36,11.29,25.36,6.46,0-6-4.81-4.82-4.81-1.32,0,9.8,13.44,1.32,17.39,1.32a28.51,28.51,0,0,1,8.33,1.61" transform="translate(0 -20.47)"/>
  <path class="cls-1" d="M364.32,452.88c0,2.34,5.12,2.92,5.12-1.9s-11.26-4.24-11.26,4.53,15.56,9.65,15.56,4.17-4.16-1.83-4.16,0c0,5.92,7.9,3.14,7.9,6.94,0,2.92,4.54,6.29,6.73,6.29" transform="translate(0 -20.47)"/>
  <path class="cls-1" d="M399.7,460.44c0-2.88-7-3.76-7,1.8s16.37,12.28,16.37,0-27-20.32-27-.15c0,25.88,39.48,18,39.48,8.19,0-6.58-4.42-4-4.42-.48,0,6.24,13.19,7.21,19.33,7.21,15.35,0,22.88-13.89,22.88-22.88" transform="translate(0 -20.47)"/>
  <path class="cls-1" d="M475,396.36c-5.89,0-6.24,7.4.71,7.4,10.13,0,12.24-16.8-1.45-16.8-19.18,0-19.62,27,1.16,27,10,0,18.8-4.86,18.8-19.18,0-23.35-12.95-30.11-12.95-20.89,0,8.21,7.23-2,7.23-10.25,0-14.84-18.44-5.42-18.44-45.46" transform="translate(0 -20.47)"/>
  <path class="cls-1" d="M452.71,415.95c3.32,0,6.12-4.72-.87-4.72S447.08,424,454,424s13.91-5.9,7.45-5.9-1,7.3,2.56,7.3,3.55-7.08,7.4-7.08" transform="translate(0 -20.47)"/>
  <path class="cls-1" d="M477.88,461c0,3.85,9.09,11,9.09,1.22s-21.5-13.46-21.5.87,33.74,23.42,33.74,0-20.1-30.59-20.1-24.3,8.22,4,8.22-2.17-5-8-5-12.69,8.3-7.69,6.21-9.79" transform="translate(0 -20.47)"/>
  <path class="cls-1" d="M441.34,442.34c0-3.5-5.94-5.24-5.94,0s15.73,10.14,15.73,0c0-18.86-29.19-16.15-29.19,2.5,0,13.58,13.83,16.38,19.23,16.38s28.32-13.87,28.32-27.27-5.07-7.52-5.07-4.72,19.93-2.27,19.93-11.62" transform="translate(0 -20.47)"/>
  <path class="cls-1" d="M409.53,426.09c-3,0-4.2,5.42,0,5.42s9.26-10.84,0-10.84-11,18.75-.52,18.75c6.12,0,6-5,1.92-5s4.9,10.45,9.09,10.45" transform="translate(0 -20.47)"/>
  <path class="cls-1" d="M220.48,436.8c-5,0-3.43,9,1.9,9,6.28,0,11-16.46-4-16.46s-17.51,26.41-1.68,26.41c4.48,0,7.62,1.12,10.25,1.12,5.58,0,9.93-8.92,4.75-8.92-6.72,0-1.06,9.33,4.52,9.33,4.55,0,7.44,9.87,10.55,9.87" transform="translate(0 -20.47)"/>
  <path class="cls-1" d="M219.88,468c-3.68,0-3.77,4.53.27,4.53,5.47,0,5.55-9-.77-9-12.55,0-9.11,16.34-.7,16.34,16.27,0,16.49-13,12.34-13-4.43,0-3.91,5.5,2.63,5.5,3.72,0,3.48-4.14,8.78-4.14,3.79,0,2.74,1,5.52,1" transform="translate(0 -20.47)"/>
  <path class="cls-1" d="M100.19,382.11c5.55,0,5.41-5.63,0-5.63-7.84,0-9.94,11.21.05,11.21,14.59,0,13.8-20.9-.48-20.9s-18.48,9.26-14.15,9.26,3.75-4.93-1.48-4.93-6.22,3.66-10.77,3.66" transform="translate(0 -20.47)"/>
  <path class="cls-1" d="M65.41,397.4c6.22,0,5.47-9.62-.86-9.62-13,0-17.44,20.64,2.57,20.64,19.48,0,15.74-37-2.22-37C21.43,371.45,36,421,55.7,421c14.29,0,9.22-5.51,5.57-5.51s-1.92,11.32,10,11.32S90.92,440,90.92,448" transform="translate(0 -20.47)"/>
  <path class="cls-1" d="M59.41,456.53c4.48,0,3.85-6.72-.91-6.72-10.17,0-11.62,14.88,2.09,14.88s16.66-27.1-3-27.1c-27.38,0-29.09,41.16,0,41.16,29.53,0,30.51-15.05,26.62-15.05s-1.46,15.87,18.89,15.87c13.87,0,8.3-7.16,23-7.16,9.89,0,11.1,7.17,33.7,7.17" transform="translate(0 -20.47)"/>
  <path class="cls-1" d="M155.62,462.22c4.05,0,3.69-5.14-.43-5.14-7.89,0-8,10.4.49,10.4,10.66,0,11.51-19.52-2.34-19.52-15.92,0-20.52,31.79,10.4,31.79,15.12,0,17.25-10.53,11.53-10.53s-5.07,6.43,11.38,6.43c18.83,0,25.33-18.16,36.59-18.16" transform="translate(0 -20.47)"/>
  <path class="cls-1" d="M101.32,414.74c3.24,0,3.1-5-1.66-5s-6.47,10.19,1.77,10.19S112.32,403,98.1,403c-15.06,0-15.23,28.69-1.37,28.69" transform="translate(0 -20.47)"/>
  <path class="cls-1" d="M148.71,433c2.59,0,4.54-4.71-.87-4.71s-5.34,9.31.73,9.31c9.75,0,9.87-14.72-.27-14.72-14.49,0-22.64,14.55-15.28,14.55,9.09,0-9.68-7.19-13.58-7.19" transform="translate(0 -20.47)"/>
  <path class="cls-1" d="M112.4,442.78c4.35,0,5.41-5.2,0-5.2-7.8,0-6.95,11.76,1.06,11.76,11.81,0,14-22.49-3.39-22.49-26.8,0-23.39,39.63-2.15,39.63,29.8,0,19.5-12.5,15.5-12.5s-2.2,5.7,5,5.7c10.61,0,7.73,4.18,12.49,4.18" transform="translate(0 -20.47)"/>
  <path class="cls-1" d="M186.79,427.14c3,0,4.76-6.13-1.52-6.13s-7.31,12.41,3.12,12.41c17.81,0,13.83-23.44-.41-23.2-30.34.53-24.06,46.31-5,46.31,10.39,0,10.6-6.35,6.35-6.35-5.92,0-5.75,14.51,7,14.51s11.1-3.4,14.09-3.4" transform="translate(0 -20.47)"/>
  <path class="cls-1" d="M52.65,333.49c4.23,0,5.22-5.59,0-5.59S46.12,338.78,55,338.78c10.42,0,10.81-19.3-2.61-19.3-23.38,0-14,33.88-5.09,33.88,4.84,0,4.85-3.34-.13-3.34-9.72,0,5,8.36,5,23.24" transform="translate(0 -20.47)"/>
  <path class="cls-1" d="M136,234c7.79,0,7.44-10.09.51-10.09-15.24,0-14.67,19.91,2,19.91,19.48,0,22.17-35.12-3.59-35.12-35.4,0-31.73,57.41-1.19,57.41,11.83,0,12.5-5.68,5.68-5.68-17.6,0,19.56,10.09,19.56,42.72" transform="translate(0 -20.47)"/>
  <path class="cls-1" d="M80.5,244.74c2.81,0,4.19-5.85-1.15-5.85s-7.74,14,3.64,14c10.15,0,18.22-22.89-3.88-22.89-25.63,0-25.89,49.72,4.56,49.72,18.07,0,9.32-6.45,4.56-6.45-8.5,0,13.65,19.07,13.65,32.33" transform="translate(0 -20.47)"/>
  <path class="cls-1" d="M167.15,246.91c0,3.25,4.47,2.9,4.47-1,0-7.12-9.53-6.89-9.53,1.68,0,6,5.66,5.16,5.66,9.49s-3.9,5.4-3.9,1.16,7.86,4.5,7.86,9.54" transform="translate(0 -20.47)"/>
  <path class="cls-1" d="M54.39,178.19c4.65,0,5.93-7.21-.3-7.21-9.84,0-10,12.88-.24,12.88,17.84,0,14.87-21.09.35-21.09-27.64,0-27.62,49.68,12.58,49.68,97.88,0,126.78-83.35,86.48-83.35-48.19,0-89.51,95.16-113.59,95.16-16.08,0-24.87-3-9.89-3,13.31,0-8.16-8.09-29.52-8.09" transform="translate(0 -20.47)"/>
  <path class="cls-1" d="M119.44,121.41c-5.94,0-5.12,6.83.17,6.83,8.36,0,9.37-13.36-2.58-13.36-11.27,0-15.15,17.13-10.82,17.13,5,0,3.54-3.25.43-3.25s-12.69,15.44-20.07,15.44" transform="translate(0 -20.47)"/>
  <path class="cls-1" d="M106.36,94.38c0,6.13,9.07,4.06,9.07-1.95,0-8.72-16.85-11.46-16.85,2.11,0,20.34,26.12,15.93,26.12-2.79,0-29.47-40.09-27.86-40.09,5.4,0,17.31,14.44,39.87,14.44,24.36,0-7.93-4.16-4.69-4.16,1.09,0,26.24-28.8,31.21-28.8,52.48" transform="translate(0 -20.47)"/>
  <path class="cls-1" d="M59.18,78.73c4.26,0,4.69-7.36-1.59-7.36s-8.72,14.24,1.59,14.24c20.75,0,16.53-28.33-2.37-28.33-29.56,0-27.54,42.79-3.42,42.79,13.78,0,11.57-2.56,5.25-2.56s-2.42,3.59,2.13,3.59C85.5,101.1,85.59,122,92.1,122" transform="translate(0 -20.47)"/>
  <path class="cls-1" d="M79.76,60.66c4.19,0,3.25-5,0-5-5.55,0-6.71,9.53,0,9.53,10.05,0,8.8-13.94,1-13.94s-9.62,3.63-18.87,3.63" transform="translate(0 -20.47)"/>
  <path class="cls-1" d="M83.93,33.76c3.76,0,4.33-4.55,0-4.55-5.8,0-6.49,8.53,0,8.53,10.36,0,10.36-15.24-.83-15.24-19.3,0-4.47,26.41-16.37,26.41-5.76,0-6.64-3.06-1.82-3.06s-2.4,11.42-8.09,11.42" transform="translate(0 -20.47)"/>
  <path class="cls-1" d="M51.6,34.92c3.55,0,3.8-4.33-.53-4.33-6.62,0-7.92,10.2,1.22,10.2,10.47,0,12.09-19.5-3.34-19.5-11.39,0-12.85,7.51-12.85,13.06,0,11.05,7.58,10.14,7.58,18.15,0,4.76-2.77,3.4-2.77-.64,0-6.87,18.76,5.66,12,5.66" transform="translate(0 -20.47)"/>
  <path class="cls-1" d="M119.61,41.25c6.23,0,7-7.9-.29-7.9-11.59,0-12.88,18.1-.43,18.1,17,0,22.54-29.67-.71-29.67-21.43,0-27.53,40.54-11.32,40.54,6.91,0,6.89-4.44,2-4.44s15.77,13-2.61,13" transform="translate(0 -20.47)"/>
  <path class="cls-1" d="M170.4,44.07c6.69,0,7.31-9.16,0-9.16-14.46,0-15.86,20.48-.69,20.48,21.93,0,28.54-34.1.35-34.1-25.09,0-40.16,48.59-28.65,48.59,5.77,0,11.43-5.41,1.61-5.41-6.28,0-21.88,5-29.84,5" transform="translate(0 -20.47)"/>
  <path class="cls-1" d="M189.13,87.66c-7.68,0-7.91,9,0,9,12.29,0,14.12-18.43-3.41-18.43s-25.21,33.36,2.8,33.36c34.45,0,31.45-48.29-2.73-48.29-24.82,0-25,21.57-38.83,21.57-9.61,0-12.4,5.14-3.59,5.14S133.7,68.93,119,68.93" transform="translate(0 -20.47)"/>
  <path class="cls-1" d="M124.64,90.79c0,15.68,10.85,17,14.16,17s1.3,3.9-3.68,3.9,9.94-11.35,16.95-11.35c16,0,13.83,17.78,3.51,17.78-12.78,0-7.21-11.23-2.38-11.23s6.1,5.09,0,5.09" transform="translate(0 -20.47)"/>
  <path class="cls-1" d="M138.05,193.28c7.06,0,77.77-18.19,77.77-32.19,0-22.26-43.09,1.34-43.09,24.54,0,9.27,10.4,14.92,16.9,14.92,36.59,0,96.73-60,79.73-60-17.75,0,17.73,46.08-18.7,46.08-20.55,0-23.48-13.34-16.56-13.34s23.13,10,31.58,10c22.73,0,53.28-46.46,45.9-46.46-6,0-26.81,39-1.52,39,18.62,0,33.56-46.68,65.81-46.68,33.56,0-17.34,91.82-51.33,91.82-25.11,0,53.06-59.9,81.85-59.9,7.79,0,8.44,9.35,3,9.35S405.31,159,419.6,159c49.91,0,51.09,55.2,17.75,55.2-20.86,0-23-33.72.47-33.72,13.25,0,13.82,17.92,4.11,17.92-8,0-7-8.08-1.3-8.08" transform="translate(0 -20.47)"/>
  <path class="cls-1" d="M395.83,209.41c5.15,0,7.43-7.79-1.59-7.79s-10.38,17.32,3.37,17.32,18.95-31-3.13-31-39.83,36.87-28.36,36.87,8.15-6.91,2.38-6.91S349,229.55,339.71,229.55" transform="translate(0 -20.47)"/>
  <path class="cls-1" d="M417,96.38c5.19,0,4.87-6.58,0-6.58-7.71,0-10.6,13.24,1,13.24,16.42,0,13.59-22-1-22-21.09,0-32.49,47.87-13.41,47.87,4.9,0,9.09-7.14,1.3-7.14-16.12,0-10.39,49.63-52,49.63-22.81,0-21.33-13-10.92-23.64" transform="translate(0 -20.47)"/>
  <path class="cls-1" d="M377.6,71.72c-3.94,0-6.1,6.49,1,6.49s8-14.07-1-14.07c-16.49,0-23.42,26.63,1,26.63s22.08-39.32,0-39.32-48.63,39.37-35,39.37c7.1,0,5.9-4.28,2-4.28-6.91,0-36.7,32.59-23.71,32.59" transform="translate(0 -20.47)"/>
  <path class="cls-1" d="M472.6,76.55c-4.33,0-5.82,7.85,2.19,7.85s9.29-14.81-3.7-14.81c-18.4,0-24.63,26.08,3.94,26.08,42.6,0,21-68.55-26.64-68.55-31.39,0-24.68,15.59-19.7,15.59,3.9,0,3.9-18.18-20.35-18.18-19.05,0-26,10.39-26,14.07,0,6.06,4.39,6.49,4.39.65s-11.53,12.2-17.37,12.2" transform="translate(0 -20.47)"/>
  <path class="cls-1" d="M400.54,39.47c0-2.6-7.43-5.41-7.43,2.6s16.38,8.79,16.38-2.64-10.36-12.3-14.8-12.3" transform="translate(0 -20.47)"/>
  <path class="cls-1" d="M364.26,36.26c2.47,0,4-5.16-1.43-5.16s-7.45,10.84.94,10.84c11.65,0,12.67-19.73-1.2-19.73-18.19,0-19.59,27.44-9.35,27.44,6,0,3.32-3.73.48-3.73-7.52,0-1.66,9.15-1.66,20.25" transform="translate(0 -20.47)"/>
  <path class="cls-1" d="M461.81,56.35c2.38,0,5.63-6.93-1.52-6.93s-10.17,13.86-1.08,13.86c18.83,0,10.19-23.81-.1-23.81S444.49,48.05,449,48.05s3.33-5.34-1.8-5.34-8.22,9.9-15.41,9.9" transform="translate(0 -20.47)"/>
  <path class="cls-1" d="M439.08,70.75c0-5.52-7.25-7.47-7.25-1s16.78,12.34,16.78-3.46-17.75-13.69-21.43-13.69-24.68,13.69-13.42,13.69,4.55-4.55,0-4.55-5.63,4.55-11,4.55-7.59-4.88-11.91-4.88" transform="translate(0 -20.47)"/>
  <path class="cls-1" d="M306.09,109.81c0-4.11-5-2.81-5,0,0,6.28,10.66,6.38,10.66-1,0-13.89-20-14.43-20,2,0,20,23.06,20.82,23.06,12.32,0-3.86-3.11-2.6-3.11,0s3.51,4.54,8.49,4.54c23.56,0,25.42-26.92,41.75-26.92,16.08,0,16.09,20.7,2.09,20.7-11.26,0-11.69-12.9-.64-12.9,5.58,0,5.13,7.52,0,7.52-2.58,0-3.17-2.79,0-2.79" transform="translate(0 -20.47)"/>
  <path class="cls-1" d="M325,70.75c3,0,5.21-5.65,0-5.65s-9,11.33,1.57,11.33,12.19-19.64,0-19.64C305,56.78,302.82,88,320.21,88c7.31,0,7.44-3.52,3.63-3.52-6.41,0,2.73,5.14,2.73,18.13" transform="translate(0 -20.47)"/>
  <path class="cls-1" d="M468.35,32.22c4.94,0,6.67-2.71,8.4-2.71s8.84,6.28,3.46,6.28,3.25-7.58,8.44-7.58,15.59,18.18,3.9,18.18-7.79-9.09-3.68-9.09,4.08,4.76,0,4.76" transform="translate(0 -20.47)"/>
  <path class="cls-1" d="M396.8,162.73c4.71,0,51.32-54.64,38.6-54.64-25.9,0,39.57,51.31,17.54,51.31-14.29,0,21.95-55.48,35.8-55.48,19.43,0,10.74,21.66,4,21.66s-7.23-5.63-4.41-5.63,6.46,29.27-4.79,29.27-8.57-14-1.6-14c7.35,0,5.71,7.24,2.25,7.24s-4-3.71-1.11-3.71" transform="translate(0 -20.47)"/>
  <path class="cls-1" d="M452.7,172c5.2,0,11.31-4.38,15.64-4.38s5.54,6.51,2,6.51,0.68-9.51,12.8-9.51c16.61,0,19,31,1.36,31-17.87,0-15.76-17.3-2-17.3,6.69,0,5.33,8.22,0,8.22-3.27,0-3.83-3.68,0-3.68" transform="translate(0 -20.47)"/>
  <path class="cls-1" d="M394.7,186.25c3.9,0,3.68-2.82,7.14-2.82s7.67,5.63,4.11,5.63,1-5.63,3.54-5.63,8.37-2.38,9.66-3.68" transform="translate(0 -20.47)"/>
  <path class="cls-1" d="M179.29,63.62c4.68,0,14.91-13.55,19.89-13.55s5.2,5.63,0,5.63,0.06-33.49,21.55-33.49S240.5,49.7,224,49.7s-12.77-18.11-2.16-18.11,8.88,11.48,3.46,11.48-5.2-5-1.95-5" transform="translate(0 -20.47)"/>
  <path class="cls-1" d="M200,66.95c44.45,0,42.66-24,50-24s4.81,5.14.48,5.14c-10.12,0,4.25-27.35,30.66-27.35,36.12,0,36.58,54.49-2,54.49-25.35,0-18.62-37.75,0-37.75,21.39,0,16.45,24,2.92,24-9.42,0-8.46-12.4-.78-12.4s6.3,6.21,1.1,6.21" transform="translate(0 -20.47)"/>
  <path class="cls-1" d="M298.65,25.83c4.33,0,30.31,10,17.1,10s2.81-10,14.72-10,11.47,20.57,0,20.57-9.74-12.77-3.25-12.77,6.49,6.28,3.25,6.28" transform="translate(0 -20.47)"/>
  <path class="cls-1" d="M193.46,126c-4.76,0-2.84,4.15.13,4.15,6,0,5.17-9.27-.13-9.27-10.47,0-10.76,14.81,1.15,14.81,17.89,0,28.56-25.28,23-25.28s-6.15,3.42-2,3.42c14.8,0,8.4-46.86-10.9-46.86" transform="translate(0 -20.47)"/>
  <path class="cls-1" d="M212.93,66.16c16.56,0,26.38,10.27,16,10.27s-0.43-4.6,13.36-4.6c23.06,0,26.33,35,3.48,35-20,0-15.56-22.95-2.49-22.95,11,0,10.48,13.66,2.8,13.66-6.49,0-5.52-6.56-1-6.56" transform="translate(0 -20.47)"/>
  <path class="cls-1" d="M259.64,83.09c8.39,0,16.41,10.58,9.16,10.58-5.17,0-3.55-3.7,4.68-3.7,7.77,0,12.16,15.7,1.26,15.7-6.13,0-6.49-6.9-.42-6.9" transform="translate(0 -20.47)"/>
  <path class="cls-1" d="M204.22,152.48c6.49,0,13.66-10.57,18.42-10.57s1.95,5.11-1.3,5.11c-5.18,0,3.86-30.42,18.84-30.42,16.7,0,17.67,23.14,0,23.14-10.61,0-7.13-13.71,1-13.71,6.06,0,6.07,6.45,0,6.45" transform="translate(0 -20.47)"/>
  <path class="cls-1" d="M253.13,129.09c4.39,0,3.9-7.12,7.47-7.12s4.33,4.25,1.12,4.25,0.38-11.76,10.38-11.76c11.7,0,14.32,16.29,2.32,16.29-8.36,0-7-9.32-1-9.32,4,0,4.17,4.79.86,4.79" transform="translate(0 -20.47)"/>
  <path class="cls-1" d="M348.24,234.78c4,0,4.87,2.83,8.13,2.83s9.18-4.6,13.06-4.6,6.75,6.44,2,6.44,1-8.16,9.38-8.16c18,0,20,44-2.45,44-19.8,0-20.06-24.87-7.38-24.87s13.29,13.14,5.95,13.14-3.27-5.84,0-5.84" transform="translate(0 -20.47)"/>
  <path class="cls-1" d="M356.57,277.52c2.45,0,6.33-4.4,0-4.4s-5.92,11.43,0,11.43,14.29-9.29,9.39-9.29-1.54,5.62,1.48,5.62,4.68-5.62,10.19-5.62" transform="translate(0 -20.47)"/>
  <path class="cls-1" d="M383.31,231.28c7.76,0,13.67,2.26,17.55,2.26s13.27-4.92,17.14-4.92,5.58,6.33,1.16,6.33,7.82-13,19.25-13,11,20.1,1.84,20.1-8-8.55-2.45-8.55,7.53,3.36,3.36,3.36" transform="translate(0 -20.47)"/>
  <path class="cls-1" d="M421.16,294.37c7.61,0,6.4-8.73-1.12-8.73-11.91,0-12.52,16.4,1.9,16.4,21.69,0,20.92-31.91-3.77-31.91-31,0-30.45,49.78,1,49.78,52.25,0,41.09-71,1.19-71-12.23,0-13,7.38-6.76,7.38s-5.07-22.72-12.73-22.72" transform="translate(0 -20.47)"/>
  <path class="cls-1" d="M441.2,343.48a2.82,2.82,0,1,0,0-5.64c-7.34,0-8.55,12.22,0,12.22,16.92,0,15.09-21.27,0-21.27-22.25,0-27.09,33.65.37,33.65,32.49,0,21.85-50.53,8.75-50.53-5.1,0-2.81,6.47.28,6.47,5.82,0,.78-12.43.78-16.39" transform="translate(0 -20.47)"/>
  <path class="cls-1" d="M394.79,355.69c0,4.7,5.82,3.72,5.82-.37,0-9.29-13.24-10-13.24,2.11,0,11.06,21.12,14.41,21.12-7.77,0-15-12.11-18.59-12.11-12,0,2.86,4.44,6.74,4.44-.61s-6-10.5-14.7-10.5" transform="translate(0 -20.47)"/>
  <path class="cls-1" d="M452.9,378.85c3.27,0,2.62-3.76-1-3.76-4.45,0-4.33,8.09,1.25,8.09,11.69,0,6.76-17.36-2.91-17.36-7.53,0,5.64,8.52,5.64-8.33" transform="translate(0 -20.47)"/>
  <path class="cls-1" d="M468.39,363.79c3,0,2.83-3.11,0-3.11-5.13,0-4.7,7.34,0,7.34,9.39,0,6.67-13.26,0-13.26-7.47,0-6.31,2.13-3.13,2.13,4.86,0-2.89-5.37-2.89-11.8" transform="translate(0 -20.47)"/>
  <path class="cls-1" d="M482.34,334.67c2.85,0,3.59-4.81-1-4.81-5.31,0-5,8.8,1.69,8.8,7.9,0,8.27-15.75,4.19-15.75s-3,2.69-.19,2.69,5.16-7.51,5.16-11" transform="translate(0 -20.47)"/>
  <path class="cls-1" d="M478.88,303.46c-4.72,0-5.89,5.77.8,5.77,5,0,6.78-12.7-4.16-12.7-12.65,0-17.25,24.05,4.36,24.05,25,0,14.4-39.54-7-39.54-9.66,0-5.58,3.51-1.91,3.51s6.06-12.65-7.5-12.65c-10.52,0-11.06-9.67-17.59-9.67" transform="translate(0 -20.47)"/>
  <path class="cls-1" d="M459.45,197.1c0,7.64,9.38,11.14,9.38,19.08,0,4.49-5.18,5.51-5.18,0,0-8.49,30.72-1.92,30.72,21.18,0,31.06-38.81,29.12-38.81,3.65,0-18.78,25.71-17.46,25.71-3.06,0,3.48-1.58,9.08-7.69,9.08-4.61,0-7.25-8.3-.46-8.3" transform="translate(0 -20.47)"/>
  <path class="cls-1" d="M486.85,276.26c5.43,0-3.52-6.49-3.52.47,0,5.08,8.86,5.66,8.86-1.89,0-10.47-8.17-14.1-8.17-9.53s3.13,2.67,3.13-9.59" transform="translate(0 -20.47)"/>
  <path class="cls-1" d="M380.92,297.91c2.37,0,2.28-3.56-1.23-3.56-4.84,0-4.24,7.81.4,7.81,9.22,0,7.09-13.41-.71-13.41-10.06,0-17.35,7.9-10.69,7.9,2.3,0,5.06-4.26-1.26-4.26-3.69,0-13,10.42-15,10.42" transform="translate(0 -20.47)"/>
  <path class="cls-1" d="M321.95,119.13c7.42,0,15.09-16.07,6.25-16.07" transform="translate(0 -20.47)"/>
  <path class="cls-1" d="M69,164.23c0-11.74-16.69-12-7.1-12,5.44,0,4.73,3.17,0,3.17-29.38,0-35.52-43.5-2.12-43.5,20.65,0,23.62,28.44,2.32,28.44-14.73,0-15.78-17.69-1.52-17.69,8.71,0,8.22,8.44,1.26,8.44" transform="translate(0 -20.47)"/>
  <path class="cls-1" d="M271.08,233c1.73,0,8-7.36,0-7.36s-9.74,14.29,2,14.29c10.13,0,13.38-27.49-4.15-27.49-18.18,0-25.76,23.38-16.45,23.38,7.14,0,6.32-5,2.18-5s-6.95,22.71-11.49,22.71" transform="translate(0 -20.47)"/>
</svg>
