<svg id="Layer_1" data-name="Layer 1" xmlns="http://www.w3.org/2000/svg" viewBox="0 0 469.02 459.85">
  <defs>
    <style>
      .cls-1 {
        fill: none;
        stroke: white;
        stroke-linecap: round;
        stroke-linejoin: round;
        stroke-width: 0.85px;
      }
    </style>
  </defs>
  <title>art2</title>
  <path class="cls-1" d="M340.12,312c-4,0-3.9,4.84.69,4.84,7.8,0,7.94-13.42-2.74-13.42-11.73,0-16.39,23.17,3.53,23.17,22.29,0,17.73-40.75-3.78-40.75-7.63,0-4.93,3.4-.85,3.4,6.9,0,3.47-5.74-6.78-5.74-32.28,0-37.78,40.85-57.54,40.85-14,0-22-11.36-22-20.57,0-20.32,32.85-37,32.85-51.64,0-12.94-10.2-14.33-16.42-14.33s-12.69,6.62-12.69,14.33c0,17.77,54,52.27,54,67.57,0,3.7-1.94,6.88-6.6,6.88s-3.29-3.75-.15-3.75c7.14,0,9.8,22.55-3.3,22.55-10.91,0-9.52-13.12-1.09-13.12,5.39,0,5.72,8,0,8-3.25,0-3-3.79,0-3.79" transform="translate(-1.99 -1.95)"/>
  <path class="cls-1" d="M272.66,324.32c-13.77,0-11.42,16.11-23,16.11-5.2,0-12.83-4.25-2.3-4.25,5.63,0-1.28,15.75-30.83,15.75-40.68,0-38.7-51.54-4.52-51.54,31.86,0,28.37,36.35,4.88,36.35-17,0-15.77-18.6-2.88-18.6,7.42,0,8.71,8.39.95,8.39" transform="translate(-1.99 -1.95)"/>
  <path class="cls-1" d="M253.52,293c0-8.71-22-12.67-12.56-12.67,7.79,0-.54,3.8-14.16,3.8-28,0-32.09-45.78.92-45.78,22.41,0,20,30.58,3.68,30.58-14.92,0-13.87-17.58-1.71-17.58,5.26,0,5.72,7.24.13,7.24" transform="translate(-1.99 -1.95)"/>
  <path class="cls-1" d="M226.8,284.13c-19.23,0-20.47,6.66-25.35,6.66-4,0-5.62-2.17-1.36-2.17,5.93,0-2.94,9.65-13.61,9.65-9.87,0-9.51-13.86-1.43-13.86,5.89,0,5.89,6.87.25,6.87" transform="translate(-1.99 -1.95)"/>
  <path class="cls-1" d="M155.84,271.85c6.59,0,6.16-9.84-.16-9.84-17.06,0-14.11,21.93.16,21.93,21.91,0,26-34-4.44-34-33.92,0-32.1,51.54,5.44,51.54,8,0,10.11-5.24,5.24-5.24-13.66,0,24.11,12.5,24.11,29.28" transform="translate(-1.99 -1.95)"/>
  <path class="cls-1" d="M179.63,313C144.91,313,158,338.83,158,328.2c0-10.23-8.58,14.51-32,14.51-18.73,0-18.22-29.71,3.91-29.71,11,0,14.68,18.69,0,18.69-7.87,0-8.11-9.54,0-9.54" transform="translate(-1.99 -1.95)"/>
  <path class="cls-1" d="M155.72,348.46c7.09,0,5-7.69-.83-7.69-8.41,0-10.9,14-.64,14,19.26,0,25.27-11.28,19.75-11.28s-4.1,4.42-1.26,4.42c10.63,0,4.82-6.72,19.17-6.72" transform="translate(-1.99 -1.95)"/>
  <path class="cls-1" d="M149.67,370.23c2.34,0,2.34-3.13-.78-3.13s-5.64,7.42,0,7.42c9.25,0,11.33-14.72,6.9-14.72s-4.58,3-1.51,3,11-8.58,11-9.57" transform="translate(-1.99 -1.95)"/>
  <path class="cls-1" d="M32.78,352.92c11.29,0,11.54-21.79,11.54-29.48,0-5.2,3.65-16.54,18.07-16.54s15.93,25.9-1,25.9c-9.09,0-8.59-14.31-.68-14.31,6.12,0,7.77,7,1.52,7" transform="translate(-1.99 -1.95)"/>
  <path class="cls-1" d="M95.24,323.72c-5.3,0-5.69,6.22.22,6.22,9.35,0,8-11.65-.8-11.65-16,0-15.17,21.57,1.75,21.57,8.76,0,9.09-6.38,5.44-6.38s-1.38,7.47,17.13,7.47" transform="translate(-1.99 -1.95)"/>
  <path class="cls-1" d="M154.06,301.39c-30.16,0-45.88-5.29-37.87-5.29S117,308,98.73,308c-37.27,0-33.09-50.77-3-50.77,19.14,0,23.32,32.51,2.46,32.51-13.44,0-13.15-18.2-1.21-18.2,6,0,7.22,7.61,1.21,7.61" transform="translate(-1.99 -1.95)"/>
  <path class="cls-1" d="M65.24,291.94c-18.79,0-26.72-6.88-20.26-6.88,7.76,0-2.54,11.52-17.28,11.52-25.31,0-27.89-29.5-5-29.5,14.1,0,13.8,19.4,1.32,19.4C17.19,286.47,15.68,275,23,275c6,0,5.08,5.49,1.49,5.49" transform="translate(-1.99 -1.95)"/>
  <path class="cls-1" d="M216.23,212.71c0-17.71,6-16.16,6-11.69,0,5.46-15.41-18.08,4.14-18.08,13.86,0,10.23,12,2,12-6.08,0-6.08-6-.27-6" transform="translate(-1.99 -1.95)"/>
  <path class="cls-1" d="M210.33,276.51c-29.11,0-27.82-31.65-18.28-31.65,5.07,0,2.79,4.09-2.54,4.09-9,0-28.92-8.94-28.92-28.62,0-14.17,7.8-29.44,22.29-29.44,31.07,0,25.76,38.34,7.2,38.34-25.58,0-16.57-24-3.31-24,9.84,0,11,12.83,3.31,12.83s-6.91-6.62-1.93-6.62" transform="translate(-1.99 -1.95)"/>
  <path class="cls-1" d="M146,200.09c0,3.84,6.56,2.66,6.56-1.18,0-8-13-8-13,1.18s11.79,7.33,11.79,11.18-4.71,8.42-4.71,3.55,13.93-2.31,13.93,7.43" transform="translate(-1.99 -1.95)"/>
  <path class="cls-1" d="M314.41,232.7c0-9.12-12.36-8.72-12.36,3.35s22.55,11.25,22.55-5.17c0-25.37-39.09-19-39.09-4.36,0,7.72,4.42,4.06,4.42,0,0-17.87-35.24.44-35.24,15.35" transform="translate(-1.99 -1.95)"/>
  <path class="cls-1" d="M323.07,343.58c3.73,0,4.13-4.87-.3-4.87-6.06,0-5.35,9.85,1.15,9.85,12.95,0,11-16.28,4.1-16.28-2.15,0-2.37,2.46,1.19,2.46,5.06,0,12.4-2,12.4-8.19" transform="translate(-1.99 -1.95)"/>
  <path class="cls-1" d="M342.41,377.91c-4.34,0-3.66,5.6,0,5.6,8.49,0,9.48-13.41-1-13.41-16.11,0-16.41,21.38,1.59,21.38,25.19,0,13.37-37.79.85-37.79-3.53,0-2.57,4.23,1.49,4.23,11,0-2-17-12-17" transform="translate(-1.99 -1.95)"/>
  <path class="cls-1" d="M250.38,375.27c-3,0-2,5.3,1.61,5.3,6.29,0,9.5-13.91-2.51-13.91-13.08,0-13.27,23.41.9,23.41,26.78,0,19.41-40.6,8.45-40.6-4.85,0-6.19,3.38-1.15,3.38,8.82,0,4.12-14.42,4.12-22.67" transform="translate(-1.99 -1.95)"/>
  <path class="cls-1" d="M227.76,399.32c0,2,3.2,1.89,3.2-.8,0-6.18-7.64-4.34-7.64,1.19,0,9.16,15.12,10.53,15.12-5.94,0-3.15-2.14-3-2.14.72,0,5.83,9.4-4.41,14.09-4.41" transform="translate(-1.99 -1.95)"/>
  <path class="cls-1" d="M310.76,413.31c-4.09,0-5.26,6.43,1,6.43S314.6,405,308.46,405c-14.52,0-15,26.47,3.47,26.47,24,0,22.08-30.6,16.38-30.6s-4.82,6.29.15,6.29,14.19-15.68,16.53-15.68" transform="translate(-1.99 -1.95)"/>
  <path class="cls-1" d="M350.82,420.47c1.46,0,5.56-5.85,0-5.85s-7.6,11.7,0,11.7c15.79,0,13.66-24.71,6.85-24.71-6.41,0-8.16,4.88-2.75,4.88s0.6-16.37.6-20.91" transform="translate(-1.99 -1.95)"/>
  <path class="cls-1" d="M265.19,410.84c-6,0-5.12,6,0,6,9.34,0,10.43-14.73-3.12-14.73-11.49,0-14,22.11,1.44,22.11s28.83-12,21.52-12-5.32,4.24-.64,4.24,13.43-1.78,13.43,3" transform="translate(-1.99 -1.95)"/>
  <path class="cls-1" d="M230.93,432.61c0,4.68,7.25,3.95,7.25,0,0-13.45-14.86-6.14-14.86,0,0,13.74,23.39,17.25,23.39-2.34,0-25.88-33-16.23-33,2.19,0,43.72,46.22,25.14,46.22,15.5,0-7-6-7.16-6-.15,0,12,22.66,17.25,22.66,10.82s-3.36-6.58-3.36-1.9,6,4.82,9.94,4.82,25-5.12,29-5.12" transform="translate(-1.99 -1.95)"/>
  <path class="cls-1" d="M287.07,435.26c-3.66,0-6,5.56,0,5.56,7.15,0,8.77-11.67,0-11.67-14.42,0-14.42,19.25-.15,19.25,10.89,0,16.67-3.5,9.5-3.5s3.72,7.82,13.64,7.82" transform="translate(-1.99 -1.95)"/>
  <path class="cls-1" d="M315.73,446.85c0,4.93,6,3.85,6-1.08,0-6.29-12.21-6.87-12.21,2.9,0,17.43,25.36,11.29,25.36,6.46,0-6-4.81-4.82-4.81-1.32,0,9.8,13.44,1.32,17.39,1.32S359.51,458,359.51,458" transform="translate(-1.99 -1.95)"/>
  <path class="cls-1" d="M334.45,434.36c0,2.34,5.12,2.92,5.12-1.9S328.3,428.22,328.3,437s15.56,9.65,15.56,4.17-4.16-1.83-4.16,0c0,5.92,7.9,3.14,7.9,6.94,0,2.92,4.54,4.6,6.73,4.6" transform="translate(-1.99 -1.95)"/>
  <path class="cls-1" d="M369.83,441.92c0-2.88-7-3.76-7,1.8s16.37,12.28,16.37,0-27-20.32-27-.15c0,25.88,39.48,18,39.48,8.19,0-6.58-4.42-4-4.42-.48,0,6.24,13.19,7.21,19.33,7.21,15.35,0,22.88-13.89,22.88-22.88" transform="translate(-1.99 -1.95)"/>
  <path class="cls-1" d="M445.18,377.83c-5.89,0-6.24,7.4.71,7.4,10.13,0,12.24-16.8-1.45-16.8-19.18,0-19.62,27,1.16,27,10,0,18.8-4.86,18.8-19.18,0-23.35-12.95-30.11-12.95-20.89,0,8.21,7.23-2,7.23-10.25,0-14.84-18.44-5.42-18.44-45.46" transform="translate(-1.99 -1.95)"/>
  <path class="cls-1" d="M422.84,399.43c3.32,0,6.12-6.72-.87-6.72s-6.75,11.76.17,11.76,15.91-4.9,9.45-4.9,0,5.3,3.56,5.3,11.79-2.72,15.64-2.72" transform="translate(-1.99 -1.95)"/>
  <path class="cls-1" d="M447,444.52c0,8.17,10.09,9,10.09-.78,0-12.74-19.5-13.46-19.5.87,0,20.18,29.74,19.91,29.74,0,0-23.42-13.1-30.59-13.1-24.3s8.22,4,8.22-2.17-2.78-21.82-2.78-27.8" transform="translate(-1.99 -1.95)"/>
  <path class="cls-1" d="M411.47,423.82c0-5.35-5.94-5.24-5.94,0,0,7.46,14.73,8.14,14.73-2,0-18.86-28.19-14.15-28.19,4.5,0,13.58,13.83,16.38,19.23,16.38,14.31,0,30.32-14.09,30.32-21.27,0-13.4-5.07-7.52-5.07-4.72s16.9-13.11,16.9-22.47" transform="translate(-1.99 -1.95)"/>
  <path class="cls-1" d="M380.66,407.56c-3,0-3.2,5.42,1,5.42s7.26-9.84-2-9.84-11,19.75-.52,19.75c6.12,0,6-5,1.92-5s7.09,11.57,11.29,11.57" transform="translate(-1.99 -1.95)"/>
  <path class="cls-1" d="M190.61,418.28c-5,0-3.43,8,1.9,8,6.28,0,13-16.46-4-16.46-15,0-16.74,28.17,3.41,28.17,8.06,0,15.1-5.56,9.92-5.56-6.72,0-1.06,6.33,4.52,6.33,4.55,0,7.44,9.87,10.55,9.87" transform="translate(-1.99 -1.95)"/>
  <path class="cls-1" d="M193,449.48c-3.68,0-3.77,4.53.27,4.53,5.47,0,5.55-9-.77-9-12.55,0-12.35,16.34-.7,16.34,16.27,0,16.49-11,12.34-11-4.43,0-5.91,3.5.63,3.5,3.72,0,2.48-4.14,7.78-4.14,3.79,0,2.74,1,5.52,1" transform="translate(-1.99 -1.95)"/>
  <path class="cls-1" d="M70.32,363.59c5.55,0,5.41-5.63,0-5.63-7.84,0-9.94,11.21.05,11.21,14.59,0,13.8-20.9-.48-20.9S51.67,352.4,56,352.4s3.75-6.93-1.48-6.93-9.13,2-13.68,2" transform="translate(-1.99 -1.95)"/>
  <path class="cls-1" d="M35.54,378.88c6.22,0,5.47-9.62-.86-9.62-13,0-17.44,20.64,2.57,20.64,19.48,0,15.74-37-2.22-37-43.46,0-28.89,49.6-9.19,49.6,14.29,0,9.22-5.51,5.57-5.51s-1.92,11.32,10,11.32,19.66,13.14,19.66,21.11" transform="translate(-1.99 -1.95)"/>
  <path class="cls-1" d="M29.54,438c4.48,0,3.85-6.72-.91-6.72-10.17,0-11.62,14.88,2.09,14.88s16.66-27.1-3-27.1c-27.38,0-29.09,41.16,0,41.16,29.53,0,30.51-15.05,26.62-15.05S52.87,461,73.22,461c13.87,0,8.3-7.16,23-7.16,9.89,0,11.1,7.17,33.7,7.17" transform="translate(-1.99 -1.95)"/>
  <path class="cls-1" d="M125.75,443.7c4.05,0,3.69-5.14-.43-5.14-7.89,0-8,10.4.49,10.4,10.66,0,11.51-19.52-2.34-19.52-15.92,0-20.52,31.79,10.4,31.79,15.12,0,17.25-10.53,11.53-10.53s-5.07,6.43,11.38,6.43c18.83,0,23.86-19.13,35.11-19.13" transform="translate(-1.99 -1.95)"/>
  <path class="cls-1" d="M71.45,396.21c3.24,0,3.1-5-1.66-5s-6.47,10.19,1.77,10.19,10.89-16.94-3.32-16.94c-15.06,0-15.23,28.69-1.37,28.69" transform="translate(-1.99 -1.95)"/>
  <path class="cls-1" d="M118.84,414.46c2.59,0,4.54-4.71-.87-4.71s-5.34,9.31.73,9.31c9.75,0,9.87-14.72-.27-14.72-14.49,0-22.64,14.55-15.28,14.55,9.09,0-9.68-7.19-13.58-7.19" transform="translate(-1.99 -1.95)"/>
  <path class="cls-1" d="M82.53,424.26c4.35,0,5.41-5.2,0-5.2-7.8,0-6.95,11.76,1.06,11.76,11.81,0,14-22.49-3.39-22.49-26.8,0-23.39,39.63-2.15,39.63,29.8,0,19.5-12.5,15.5-12.5s-2.2,5.7,5,5.7c10.61,0,7.73,4.18,12.49,4.18" transform="translate(-1.99 -1.95)"/>
  <path class="cls-1" d="M156.92,408.62c3,0,4.76-6.13-1.52-6.13s-7.31,12.41,3.12,12.41c17.81,0,13.83-23.44-.41-23.2-30.34.53-24.06,46.31-5,46.31,10.39,0,10.6-6.35,6.35-6.35-5.92,0-5.75,14.51,7,14.51s12.76-3.4,15.75-3.4" transform="translate(-1.99 -1.95)"/>
  <path class="cls-1" d="M22.78,318c4.23,0,5.22-5.59,0-5.59s-6.55,9.88,2.33,9.88c10.42,0,10.81-18.3-2.61-18.3-23.38,0-14,31.88-5.09,31.88,4.84,0,4.85-3.34-.13-3.34-9.72,0,5,7.36,5,22.24" transform="translate(-1.99 -1.95)"/>
  <path class="cls-1" d="M107.17,214.45c7.79,0,6.39-10-.53-10-15.24,0-14.67,18.91,2,18.91,19.48,0,22.17-33.12-3.59-33.12-35.4,0-33.08,49.93,2.6,49.93,11.83,0,10.71-3.2,3.89-3.2-13.31,0,15.76,7.35,15.76,38.33" transform="translate(-1.99 -1.95)"/>
  <path class="cls-1" d="M72,281.11c0-6.63-8.77-19.35-4.52-19.35,2.38,0,5.62,3.26.72,3.26-11.8,0-8.73-28.58,5.74-28.58,11.2,0,12,17.3,1,17.3-6.5,0-6-10.11-.67-10.11,3.3,0,4,5.31-.16,5.31" transform="translate(-1.99 -1.95)"/>
  <path class="cls-1" d="M139.42,230.37c0,3.25,4.47,2.9,4.47-1,0-7.12-9.53-6.89-9.53,1.68,0,6,5.66,5.16,5.66,9.49s-3.9,5.4-3.9,1.16,7.86,4.5,7.86,9.54" transform="translate(-1.99 -1.95)"/>
  <path class="cls-1" d="M89.57,102.88c-5.94,0-5.12,6.83.17,6.83,8.36,0,9.37-13.36-2.58-13.36C75.88,96.36,70,114.5,74.33,114.5c5,0,3.54-3.25.43-3.25s-12,19.34-22.58,19.34" transform="translate(-1.99 -1.95)"/>
  <path class="cls-1" d="M289.29,34.49c-4.09,0-3.9,4.83.17,4.83,6.53,0,6.72-9.36-1.58-9.36-9.24,0-16.15,19.13-11.82,19.13,5,0,3.54-3.25.43-3.25-5.91,0-2.28,13.5-9.66,13.5" transform="translate(-1.99 -1.95)"/>
  <path class="cls-1" d="M76.49,74.86c0,6.13,9.07,4.06,9.07-1.95,0-8.72-17.85-11.46-17.85,2.11,0,20.34,27.12,16.93,27.12-1.79,0-29.47-40.09-27.86-40.09,5.4C54.76,95.94,66.2,112.8,66.2,102c0-7.93-4.16-4.69-4.16,1.09,0,32.19-25.8,32.21-25.8,53.48" transform="translate(-1.99 -1.95)"/>
  <path class="cls-1" d="M29.31,60.21c4.26,0,4.69-7.36-1.59-7.36S19,67.09,29.31,67.09c20.75,0,16.53-28.33-2.37-28.33-29.56,0-27.54,42.79-3.42,42.79,13.78,0,11.57-2.56,5.25-2.56s-2.42,3.59,2.13,3.59c24.72,0,21.29,15.5,27.8,15.5" transform="translate(-1.99 -1.95)"/>
  <path class="cls-1" d="M49.89,40.14c4.19,0,3.25-5,0-5-5.55,0-6.71,9.53,0,9.53,10.05,0,8.8-13.94,1-13.94S42.63,36,30.82,36" transform="translate(-1.99 -1.95)"/>
  <path class="cls-1" d="M415.65,69.16c0,3.65,4.33,2.83,4.33,0,0-4.83-8.29-5.84-8.29,0,0,8.75,12.13,7.66,12.13.85s-4.07-5.42-4.07-15.7" transform="translate(-1.99 -1.95)"/>
  <path class="cls-1" d="M54.06,16.24c3.76,0,4.33-4.55,0-4.55-5.8,0-8.5,10.53,0,10.53C66.94,22.22,66.65,4,53.22,4,30.45,4,41.4,38.58,41.4,26.07c0-9.67-5.82,12.68-17.55,12.68" transform="translate(-1.99 -1.95)"/>
  <path class="cls-1" d="M21.73,16.39c3.55,0,3.8-4.33-.53-4.33-6.62,0-7.92,10.2,1.22,10.2,10.47,0,12.09-19.5-3.34-19.5-10.3,0-12.85,7.51-12.85,13.06,0,19,14.12,21,14.12,16.92,0-6.87-10.6,6.85-10.6,13.2" transform="translate(-1.99 -1.95)"/>
  <path class="cls-1" d="M74.75,294.93c-16.71,0-44.8-37.06-32-37.06,6.31,0,8.53,2.56-5.25,2.56-33.05,0-36.95-50.79.42-50.79,25.55,0,28.29,36.33,2.37,36.33-15,0-17.57-23.24-1.59-23.24,11.37,0,9,13.36,1.59,13.36-5.07,0-4.35-5.58-1.09-5.58" transform="translate(-1.99 -1.95)"/>
  <path class="cls-1" d="M300.55,265c7.11,0,5.58-8.53,0-8.53-12.88,0-10.76,15.24.83,15.24,21.18,0,11.44-27.92,11.44-14.08,0,9.67,10.74-2.32,10.74-21.08" transform="translate(-1.99 -1.95)"/>
  <path class="cls-1" d="M87.74,23.72c6.23,0,5.1-7.9-.29-7.9-11.59,0-11.88,16.1.57,16.1,17,0,20.95-28.67.29-28.67-21.43,0-25.17,39.91-14.62,39.91,8,0-18.17-15.29-18.17,28" transform="translate(-1.99 -1.95)"/>
  <path class="cls-1" d="M76.39,52.33c8,0,30.77-9.28,37-9.28,9.82,0,4.16,3.41-1.61,3.41-11.51,0-5.58-43.69,24.37-43.69,24.89,0,23.43,35,.29,35-17.38,0-15.41-22.37-1-22.37,11,0,9.8,12.27,1.77,12.27-4.92,0-5.88-6.29-.77-6.29" transform="translate(-1.99 -1.95)"/>
  <path class="cls-1" d="M94.77,72.27c0,15.68,10.85,17,14.16,17s1.3,3.9-3.68,3.9,9.94-14.35,16.95-14.35c16,0,16.79,19.78,3.51,19.78-12.78,0-7.21-11.23-2.38-11.23s6.1,5.09,0,5.09" transform="translate(-1.99 -1.95)"/>
  <path class="cls-1" d="M24.52,161.67c4.65,0,5.93-7.21-.3-7.21-9.84,0-12,13.88-.24,13.88,17.84,0,14.87-24.09.35-24.09-27.64,0-24.65,42.71,15.55,42.71,106.87,0,114.47-76.38,74.51-76.38-35.42,0-75,95.16-104.59,95.16-51.38,0,176.16-27.15,176.16-63.16,0-22.26-43.09,1.34-43.09,24.54,0,9.27,7.56,14.92,16.9,14.92,36.59,0,96.73-60,79.73-60-17.75,0,17.73,46.08-18.7,46.08-20.55,0-23.48-13.34-16.56-13.34s23.13,10,31.58,10c22.73,0,53.28-46.46,45.9-46.46-6,0-26.81,39-1.52,39,18.62,0,33.56-46.68,65.81-46.68,33.56,0-17.34,91.82-51.33,91.82-25.11,0,53.06-59.9,81.85-59.9,7.79,0,8.44,9.35,3,9.35s-4.11-11.47,10.17-11.47c49.91,0,51.09,55.2,17.75,55.2-20.86,0-23-33.72.47-33.72,13.25,0,13.82,17.92,4.11,17.92-8,0-7-8.08-1.3-8.08" transform="translate(-1.99 -1.95)"/>
  <path class="cls-1" d="M366,190.89c5.15,0,7.43-7.79-1.59-7.79s-10.38,17.32,3.37,17.32c20,0,18.95-31-3.13-31s-39.83,36.87-28.36,36.87,9.32-3.91,3.38-3.91c-5.77,0-21.44,12.14-30.77,12.14" transform="translate(-1.99 -1.95)"/>
  <path class="cls-1" d="M386.18,78.86c5.19,0,4.87-6.58,0-6.58-7.71,0-10.6,13.24,1,13.24,14.48,0,11.65-22-1-22-21.09,0-31.49,46.87-12.41,46.87,4.9,0,9.09-7.14,1.3-7.14-16.12,0-10.39,49.63-52,49.63-22.81,0-21.33-13-10.92-23.64" transform="translate(-1.99 -1.95)"/>
  <path class="cls-1" d="M445.73,58c-4.33,0-5.82,6.85,2.19,6.85s11.08-15.81-3.7-15.81c-15.54,0-15,28.08,2.94,28.08,42.6,0,10.93-70.55-30.64-70.55-31.39,0-24,9.59-19,9.59,7.5,0,2.46-8.42-22-8.42" transform="translate(-1.99 -1.95)"/>
  <path class="cls-1" d="M372.52,21.94c0-5.66-8.28-5.66-8.28.6,0,8,16.38,9.79,16.38-1.64,0-15.3-9.95-15.3-14.38-15.3-9.62,0-14.75,9.79-14.75,13.47,0,6.06,4.39,6.49,4.39.65s-18.5,9.07-18.5,16.33" transform="translate(-1.99 -1.95)"/>
  <path class="cls-1" d="M330.39,17.74c2.47,0,4-5.16-1.43-5.16s-7.45,10.84.94,10.84c11.65,0,12.67-19.73-1.2-19.73-18.19,0-11.52,29.44-3.35,29.44,6,0,3.32-2.73.48-2.73-7.52,0-4.52,8.57-4.52,19.66" transform="translate(-1.99 -1.95)"/>
  <path class="cls-1" d="M431.35,34.36c2.16,0,5.11-3.56-1.38-3.56s-5.08,8,.83,8c14.87,0,9.25-15.26-.09-15.26-8.52,0-13.47,5.07-10.05,5.07,4.13,0,4.36-3-.29-3s-5.16,4.2-11.69,4.2" transform="translate(-1.99 -1.95)"/>
  <path class="cls-1" d="M356.62,34.84c15.9,0,35.52,12.95,24.26,12.95s40.5-40.51,40.5.13c0,16.32-25,15.44-25,1.54,0-8.59,15.27-13,15.27-1.82,0,5.79-6.26,5.72-6.26,1.28" transform="translate(-1.99 -1.95)"/>
  <path class="cls-1" d="M303.55,79.13c11.36,0,21.44,13.79,15.84,13.79-9,0-3-12.92,18.31-12.92,15.31,0,16.84,21.52,2,21.52-10.72,0-11.13-13.79-.61-13.79,5.31,0,5.88,7.45,1,7.45" transform="translate(-1.99 -1.95)"/>
  <path class="cls-1" d="M227.86,54.5c9,0,30.34,8.33,21.84,8.33-7,0,2.42-3.5,18.26-3.5,19.18,0,23.79,24.51,3.51,24.51-10.71,0-11.48-13.93-.43-13.93,7,0,7.94,8.39.28,8.39" transform="translate(-1.99 -1.95)"/>
  <path class="cls-1" d="M302.05,51.42c-5.21,0-7,7.27.41,7.27,9.75,0,8.93-15.12-.61-15.12-18.08,0-10.78,24.19-1.75,24.19,5.1,0,3.69-2.85-.13-2.85-6.41,0-.51,6.38-0.51,19.37" transform="translate(-1.99 -1.95)"/>
  <path class="cls-1" d="M435.64,11.77c15.41,0,20,3.5,14.7,3.5s0.47-5.58,8.44-5.58c13.19,0,12.75,15.18,3.9,15.18-9.67,0-5.79-10.09-1.68-10.09s4.08,4.76,0,4.76" transform="translate(-1.99 -1.95)"/>
  <path class="cls-1" d="M366.93,144.2c4.71,0,51.32-54.64,38.6-54.64-25.9,0,39.57,51.31,17.54,51.31-14.29,0,21.95-55.48,35.8-55.48,19.43,0,10.74,21.66,4,21.66s-7.23-5.63-4.41-5.63,6.46,29.27-4.79,29.27-8.57-14-1.6-14c7.35,0,5.71,7.24,2.25,7.24s-4-3.71-1.11-3.71" transform="translate(-1.99 -1.95)"/>
  <path class="cls-1" d="M422.83,153.43c5.2,0,11.31-4.38,15.64-4.38s5.54,6.51,2,6.51,0.68-9.51,12.8-9.51c16.61,0,19,31,1.36,31-17.87,0-15.76-17.3-2-17.3,6.69,0,5.33,8.22,0,8.22-3.27,0-3.83-3.68,0-3.68" transform="translate(-1.99 -1.95)"/>
  <path class="cls-1" d="M364.83,167.73c3.9,0,3.68-2.82,7.14-2.82s7.67,5.63,4.11,5.63,1-5.63,3.54-5.63,8.37-2.38,9.66-3.68" transform="translate(-1.99 -1.95)"/>
  <path class="cls-1" d="M149.25,45.38c4.68,0,16.08-13.83,21.06-13.83s4.2,5.63-1,5.63,1.06-33.49,22.55-33.49,18.71,25.26,2.26,25.26c-14.69,0-12.72-15.88-2.11-15.88,8,0,7.62,8.62,2.21,8.62" transform="translate(-1.99 -1.95)"/>
  <path class="cls-1" d="M155.92,44.79c51.25,0,56.89-20.38,64.25-20.38s4.81,5.14.48,5.14c-10.12,0,4.25-27.35,30.66-27.35,26.6,0,30.55,39.49,0,39.49-19.68,0-18.66-26.75-3-26.75,19.42,0,12.05,18,4.92,18-9.42,0-9.46-7.4-1.78-7.4" transform="translate(-1.99 -1.95)"/>
  <path class="cls-1" d="M262.83,5.23c8.18,0,28.34,6.12,20.33,6.12-9.65,0,.86-8.79,12.77-8.79,17.4,0,16.47,22.15,3.11,22.15-11.47,0-10.5-14.77-2.25-14.77,6.49,0,6.06,7.28,1.25,7.28" transform="translate(-1.99 -1.95)"/>
  <path class="cls-1" d="M173.4,43.88c16.56,0,36,11,25.65,11s-0.43-7.6,13.36-7.6c23.06,0,30.33,37,7.48,37-20,0-15.56-22.95-2.49-22.95,11,0,10.48,13.66,2.8,13.66-6.49,0-5.52-6.56-1-6.56" transform="translate(-1.99 -1.95)"/>
  <path class="cls-1" d="M232.47,62.54c0,11,31.22,25.14,31.22,31.25,0,4.77-10.5-1.63,2.11-1.63,4.72,0,10.37-.58,10.37,8.23,0,6.71-7.79,6.14-7.79.92,0-4,4.14-4,4.14,0" transform="translate(-1.99 -1.95)"/>
  <path class="cls-1" d="M233.8,69.93c0,29.51,22.7,17,10.74,17-7.28,0,15.3,24.51-4.92,24.51-10.76,0-9.15-11.94-1.63-11.94,5,0,4.9,5.34,1.29,5.34" transform="translate(-1.99 -1.95)"/>
  <path class="cls-1" d="M192.82,79.13c0,28.53,27.24,11.87,15.73,11.87-6.23,0,21,31.36-5.89,31.36-15.24,0-14.39-18.86-.68-18.86,10.61,0,8.79,11.71,1.62,11.71-5.52,0-5.28-6.33,0-6.33" transform="translate(-1.99 -1.95)"/>
  <path class="cls-1" d="M320.09,211.16c18.2,0,26.22,9.77,21.52,9.77s0.89-5.9,9.26-5.9c18,0,20.12,42.71-2.33,42.71-20.84,0-16.06-25.87-3.38-25.87,14.94,0,11.11,16.14,1.95,16.14-5.5,0-7.11-7.84,0-7.84" transform="translate(-1.99 -1.95)"/>
  <path class="cls-1" d="M352.14,215.1c17,0,32.12-5,36-5s5.58,6.33,1.16,6.33,6-10.7,17.42-10.7c15.6,0,13.21,20.1,1.84,20.1-9.18,0-6.95-10.05-1.44-10.05s5.1,5.33.92,5.33" transform="translate(-1.99 -1.95)"/>
  <path class="cls-1" d="M366.24,214.48c7.66,0,23.68,26.27,17.48,26.27s-5.47-7.38,6.76-7.38c42.7,0,54.62,67,1.81,67-32,0-29.48-47.78-1-47.78,24.7,0,26.21,32.91,2.77,32.91-14.42,0-12.81-19.4-.9-19.4,6.93,0,6.61,11.15,0,11.15" transform="translate(-1.99 -1.95)"/>
  <path class="cls-1" d="M409.33,325a2.82,2.82,0,1,0,0-5.64c-7.34,0-8.55,12.22,0,12.22,16.92,0,15.09-21.27,0-21.27-22.25,0-27.09,33.65.37,33.65,32.49,0,23.85-44.53,10.75-44.53-5.1,0-2.81,6.47.28,6.47,5.82,0,3.34-17.93,3.34-21.89" transform="translate(-1.99 -1.95)"/>
  <path class="cls-1" d="M364.92,336.17c0,4.7,5.82,3.72,5.82-.37,0-9.29-13.24-10-13.24,2.11,0,11.06,23.12,15.41,23.12-6.77,0-15-13.11-19.59-13.11-13,0,2.86,4.44,6.74,4.44-.61s-7-9.5-15.7-9.5" transform="translate(-1.99 -1.95)"/>
  <path class="cls-1" d="M423,360.33c3.27,0,2.62-3.76-1-3.76-4.45,0-4.33,8.09,1.25,8.09,11.69,0,6.76-17.36-2.91-17.36-7.53,0,5.64,8.52,5.64-8.33" transform="translate(-1.99 -1.95)"/>
  <path class="cls-1" d="M438.52,345.27c3,0,2.83-3.11,0-3.11-5.13,0-4.7,7.34,0,7.34,9.39,0,6.67-13.26,0-13.26-7.47,0-6.31,2.13-3.13,2.13,4.86,0-2.89-5.37-2.89-11.8" transform="translate(-1.99 -1.95)"/>
  <path class="cls-1" d="M452.47,316.15c2.85,0,3.59-4.81-1-4.81-5.31,0-5,8.8,1.69,8.8,7.9,0,8.27-15.75,4.19-15.75s-3,2.69-.19,2.69,5.16-7.51,5.16-11" transform="translate(-1.99 -1.95)"/>
  <path class="cls-1" d="M449,284.94c-4.72,0-5.89,5.77.8,5.77,5,0,6.78-12.7-4.16-12.7C433,278,428.4,302.06,450,302.06c25,0,14.4-39.54-7-39.54-9.66,0-5.58,3.51-1.91,3.51s6.06-12.65-7.5-12.65c-10.52,0-11.06-9.67-17.59-9.67" transform="translate(-1.99 -1.95)"/>
  <path class="cls-1" d="M429.58,178.58c0,7.64,9.38,11.14,9.38,19.08,0,4.49-5.18,5.51-5.18,0,0-8.49,30.72-1.92,30.72,21.18,0,31.06-38.81,29.12-38.81,3.65,0-18.78,25.71-17.46,25.71-3.06,0,3.48-1.58,9.08-7.69,9.08-4.61,0-7.25-8.3-.46-8.3" transform="translate(-1.99 -1.95)"/>
  <path class="cls-1" d="M457,257.74c5.43,0-3.52-6.49-3.52.47,0,5.08,8.86,5.66,8.86-1.89,0-10.47-8.17-14.1-8.17-9.53s3.13,2.67,3.13-9.59" transform="translate(-1.99 -1.95)"/>
  <path class="cls-1" d="M352.05,278.39c2.37,0,2.28-3.56-1.23-3.56-4.84,0-4.24,7.81.4,7.81,9.22,0,8.37-14.41-1.71-14.41s-19.35,9.9-12.69,9.9c2.3,0,5.06-4.26-1.26-4.26-3.69,0-11,10.42-13,10.42" transform="translate(-1.99 -1.95)"/>
  <path class="cls-1" d="M347.73,53.2c-3.94,0-6.1,6.49,1,6.49s8-14.07-1-14.07c-16.49,0-23.42,25.63,1,25.63s22.08-38.32,0-38.32-45.63,39.37-32,39.37c7.1,0,5.9-4.28,2-4.28-9.93,0-35.36,34.59-26.71,34.59,6.25,0,16.22-18.32,7.38-18.32" transform="translate(-1.99 -1.95)"/>
  <path class="cls-1" d="M39.1,145.7c0-11.74-16.69-12-7.1-12,5.44,0,4.73,3.17,0,3.17-29.38,0-35.52-43.5-2.12-43.5,20.65,0,23.62,28.44,2.32,28.44-14.73,0-15.78-17.69-1.52-17.69,8.71,0,8.22,8.44,1.26,8.44" transform="translate(-1.99 -1.95)"/>
  <path class="cls-1" d="M231.21,223.48c6.22,0,4.5-7.36,0-7.36-8,0-9.74,13.29,2,13.29,13.45,0,13.38-23.49-4.15-23.49-15.72,0-24.57,27-15.26,27,2.89,0,5.32-3,1.18-3s-6.92,7.1-6.92,17.67" transform="translate(-1.99 -1.95)"/>
  <path class="cls-1" d="M159.26,69.14c-7.68,0-7.91,9,0,9,12.29,0,14.12-18.43-3.41-18.43s-25.21,33.36,2.8,33.36c34.45,0,31.45-48.29-2.73-48.29-24.82,0-25,21.57-38.83,21.57-9.61,0-12.4,5.14-3.59,5.14s-13.15-20.9-27.82-20.9" transform="translate(-1.99 -1.95)"/>
  <path class="cls-1" d="M162.59,107.44c-4.76,0-2.84,4.15.13,4.15,6,0,5.17-9.27-.13-9.27-10.47,0-10.76,14.81,1.15,14.81,17.89,0,29.56-25.28,24-25.28s-6.15,3.42-2,3.42c14.8,0,5.53-46-13.78-46" transform="translate(-1.99 -1.95)"/>
  <path class="cls-1" d="M284,176.12c-6.35,0-6.54,8,0,8,10.72,0,12-17,0-17-16.74,0-24.78,38.81-14.89,38.81s4.42-6.47-.29-6.47-14.41,24.25-14.41,52.66" transform="translate(-1.99 -1.95)"/>
  <path class="cls-1" d="M250.88,182.82c0,4.76,6.3,3.36,6.3,0,0-8.82-12.6-9.58-12.6,2.95,0,15,12,14.42,12,10.71s-3.1-5.05-3.1-1.34,5.53,8.82,5.53,22.59" transform="translate(-1.99 -1.95)"/>
</svg>
